<svg xmlns="http://www.w3.org/2000/svg" viewBox="0 0 64 64" width="128" height="128"><path fill="#f9e3ae" d="M30.936 9.225999999999999A22 22 0 1 0 30.936 53.226A22 22 0 1 0 30.936 9.225999999999999Z"/><path fill="#ffefca" d="M12.649 52.513c2.627 2.498 5.736 4.49 9.177 5.823l34.11-34.11V17.8c-1.058-1.757-2.308-3.384-3.713-4.861L12.649 52.513zM10.7 50.463l39.237-39.237h-6L8.157 47.005C8.916 48.224 9.768 49.379 10.7 50.463zM7.731 43.431l33.205-33.205-3-2L6.3 39.862C6.698 41.091 7.175 42.284 7.731 43.431z"/><path fill="#f6d397" d="M30.936,3.226c-15.464,0-28,12.536-28,28s12.536,28,28,28s28-12.536,28-28S46.4,3.226,30.936,3.226z M30.936,53.226c-12.15,0-22-9.85-22-22s9.85-22,22-22c5.883,0,11.226,2.309,15.174,6.07c0.231,0.22,0.456,0.444,0.677,0.674 c0.258,0.268,0.51,0.543,0.755,0.825c3.36,3.863,5.394,8.91,5.394,14.431C52.936,43.376,43.087,53.226,30.936,53.226z"/><path fill="#fff8f8" d="M17.434 27.222L18.672 29.486 20.936 30.724 18.672 31.962 17.434 34.226 16.196 31.962 13.932 30.724 16.196 29.486zM43.355 20.226L44.21 21.79 45.774 22.645 44.21 23.5 43.355 25.064 42.5 23.5 40.936 22.645 42.5 21.79zM43.288 35.93L43.871 36.995 44.936 37.578 43.871 38.161 43.288 39.226 42.706 38.161 41.641 37.578 42.706 36.995z"/><path fill="#8d6c9f" d="M38.351,11.322c0.713,0.267,1.42,0.576,2.1,0.919c0.145,0.073,0.298,0.107,0.449,0.107 c0.365,0,0.718-0.201,0.894-0.549c0.249-0.493,0.051-1.095-0.442-1.343c-0.744-0.376-1.519-0.715-2.301-1.007 c-0.516-0.194-1.092,0.07-1.286,0.586C37.57,10.553,37.833,11.128,38.351,11.322z"/><path fill="#8d6c9f" d="M31,2C15.01,2,2,15.009,2,31s13.01,29,29,29s29-13.009,29-29S46.99,2,31,2z M31,58 C16.112,58,4,45.888,4,31S16.112,4,31,4s27,12.112,27,27S45.888,58,31,58z"/><path fill="#8d6c9f" d="M31 51c-.553 0-1 .448-1 1v2c0 .552.447 1 1 1s1-.448 1-1v-2C32 51.448 31.553 51 31 51zM37.013 51.077c-.143-.534-.689-.851-1.225-.707-.533.143-.85.691-.707 1.225l.518 1.932c.119.447.523.742.965.742.086 0 .173-.011.26-.035.533-.143.85-.691.707-1.225L37.013 51.077zM21.75 48.521c-.478-.277-1.09-.113-1.366.366l-1 1.732c-.276.478-.112 1.09.366 1.366.157.091.329.134.499.134.346 0 .682-.179.867-.5l1-1.732C22.393 49.41 22.229 48.798 21.75 48.521zM41.616 48.888c-.277-.479-.891-.643-1.366-.366-.479.276-.643.888-.366 1.366l1 1.732c.186.321.521.5.867.5.17 0 .342-.043.499-.134.479-.276.643-.888.366-1.366L41.616 48.888zM26.212 50.37c-.531-.143-1.082.173-1.225.707l-.518 1.932c-.143.534.174 1.082.707 1.225.087.023.174.035.26.035.441 0 .846-.295.965-.742l.518-1.932C27.062 51.061 26.745 50.512 26.212 50.37zM16.15 16.151c4.748-4.748 11.55-6.949 18.188-5.886.544.088 1.059-.284 1.146-.829.088-.545-.284-1.059-.829-1.146-7.269-1.167-14.718 1.246-19.918 6.446-8.967 8.967-8.967 23.559 0 32.526.195.195.451.293.707.293s.512-.098.707-.293c.391-.391.391-1.023 0-1.414C7.963 37.661 7.963 24.339 16.15 16.151zM47.264 14.737c-.658-.659-1.363-1.283-2.094-1.856-.437-.341-1.063-.264-1.404.17-.341.435-.265 1.063.17 1.404.668.523 1.312 1.094 1.914 1.696 8.188 8.188 8.188 21.51 0 29.698-.391.391-.391 1.023 0 1.414.195.195.451.293.707.293s.512-.098.707-.293C56.23 38.296 56.23 23.704 47.264 14.737zM34.737 25.035l-4 1.091c-.533.146-.848.695-.702 1.228.121.445.524.737.964.737.088 0 .176-.012.264-.036l4-1.091c.533-.146.848-.695.702-1.228C35.819 25.203 35.265 24.893 34.737 25.035z"/><path fill="#8d6c9f" d="M38.743,32.155c-0.537-0.116-1.073,0.22-1.193,0.759c-0.862,3.883-3.766,7.006-7.576,8.149 L28,41.656v-17.71l7.263-1.981c0.533-0.146,0.848-0.695,0.702-1.228c-0.146-0.534-0.7-0.845-1.228-0.702L28,21.873V19 c0-0.552-0.447-1-1-1s-1,0.448-1,1v3.418l-2.263,0.617c-0.533,0.146-0.848,0.695-0.702,1.228C23.156,24.708,23.56,25,23.999,25 c0.088,0,0.176-0.012,0.264-0.036L26,24.491v2.927l-2.263,0.617c-0.533,0.146-0.848,0.695-0.702,1.228 C23.156,29.708,23.56,30,23.999,30c0.088,0,0.176-0.012,0.264-0.036L26,29.491v12.165c0,0.639,0.294,1.224,0.806,1.604 c0.352,0.262,0.766,0.397,1.188,0.397c0.193,0,0.389-0.028,0.58-0.086l1.974-0.592c4.504-1.352,7.935-5.042,8.955-9.632 C39.622,32.809,39.282,32.275,38.743,32.155z"/></svg>